<mxfile host="app.diagrams.net" modified="2024-05-12T07:59:34.975Z" agent="Mozilla/5.0 (Windows NT 10.0; Win64; x64) AppleWebKit/537.36 (KHTML, like Gecko) Chrome/124.0.0.0 Safari/537.36" etag="ubFxaY4TJZPvpmWNgf8W" version="24.4.0" type="device">
  <diagram name="Page-1" id="W-Rp1iAwEfYVfEFOSiNC">
    <mxGraphModel dx="503" dy="263" grid="1" gridSize="10" guides="1" tooltips="1" connect="1" arrows="1" fold="1" page="1" pageScale="1" pageWidth="850" pageHeight="1100" math="0" shadow="0">
      <root>
        <mxCell id="0" />
        <mxCell id="1" parent="0" />
        <mxCell id="IGegy7iQX4-WX8THovyX-1" value="" style="shape=umlLifeline;perimeter=lifelinePerimeter;whiteSpace=wrap;html=1;container=1;dropTarget=0;collapsible=0;recursiveResize=0;outlineConnect=0;portConstraint=eastwest;newEdgeStyle={&quot;curved&quot;:0,&quot;rounded&quot;:0};participant=umlActor;" vertex="1" parent="1">
          <mxGeometry x="110" y="40" width="20" height="440" as="geometry" />
        </mxCell>
        <mxCell id="IGegy7iQX4-WX8THovyX-5" value="" style="html=1;points=[[0,0,0,0,5],[0,1,0,0,-5],[1,0,0,0,5],[1,1,0,0,-5]];perimeter=orthogonalPerimeter;outlineConnect=0;targetShapes=umlLifeline;portConstraint=eastwest;newEdgeStyle={&quot;curved&quot;:0,&quot;rounded&quot;:0};" vertex="1" parent="IGegy7iQX4-WX8THovyX-1">
          <mxGeometry x="5" y="80" width="10" height="320" as="geometry" />
        </mxCell>
        <mxCell id="IGegy7iQX4-WX8THovyX-2" value="UI :Android app" style="shape=umlLifeline;perimeter=lifelinePerimeter;whiteSpace=wrap;html=1;container=1;dropTarget=0;collapsible=0;recursiveResize=0;outlineConnect=0;portConstraint=eastwest;newEdgeStyle={&quot;curved&quot;:0,&quot;rounded&quot;:0};" vertex="1" parent="1">
          <mxGeometry x="230" y="40" width="100" height="440" as="geometry" />
        </mxCell>
        <mxCell id="IGegy7iQX4-WX8THovyX-7" value="" style="html=1;points=[[0,0,0,0,5],[0,1,0,0,-5],[1,0,0,0,5],[1,1,0,0,-5]];perimeter=orthogonalPerimeter;outlineConnect=0;targetShapes=umlLifeline;portConstraint=eastwest;newEdgeStyle={&quot;curved&quot;:0,&quot;rounded&quot;:0};" vertex="1" parent="IGegy7iQX4-WX8THovyX-2">
          <mxGeometry x="45" y="80" width="10" height="320" as="geometry" />
        </mxCell>
        <mxCell id="IGegy7iQX4-WX8THovyX-3" value="AES Encryption :Android app" style="shape=umlLifeline;perimeter=lifelinePerimeter;whiteSpace=wrap;html=1;container=1;dropTarget=0;collapsible=0;recursiveResize=0;outlineConnect=0;portConstraint=eastwest;newEdgeStyle={&quot;curved&quot;:0,&quot;rounded&quot;:0};" vertex="1" parent="1">
          <mxGeometry x="390" y="40" width="100" height="440" as="geometry" />
        </mxCell>
        <mxCell id="IGegy7iQX4-WX8THovyX-9" value="" style="html=1;points=[[0,0,0,0,5],[0,1,0,0,-5],[1,0,0,0,5],[1,1,0,0,-5]];perimeter=orthogonalPerimeter;outlineConnect=0;targetShapes=umlLifeline;portConstraint=eastwest;newEdgeStyle={&quot;curved&quot;:0,&quot;rounded&quot;:0};" vertex="1" parent="IGegy7iQX4-WX8THovyX-3">
          <mxGeometry x="45" y="120" width="10" height="80" as="geometry" />
        </mxCell>
        <mxCell id="IGegy7iQX4-WX8THovyX-19" value="" style="shape=umlDestroy;whiteSpace=wrap;html=1;strokeWidth=3;targetShapes=umlLifeline;" vertex="1" parent="IGegy7iQX4-WX8THovyX-3">
          <mxGeometry x="35" y="425" width="30" height="30" as="geometry" />
        </mxCell>
        <mxCell id="IGegy7iQX4-WX8THovyX-4" value=":Ad hoc network" style="shape=umlLifeline;perimeter=lifelinePerimeter;whiteSpace=wrap;html=1;container=1;dropTarget=0;collapsible=0;recursiveResize=0;outlineConnect=0;portConstraint=eastwest;newEdgeStyle={&quot;curved&quot;:0,&quot;rounded&quot;:0};" vertex="1" parent="1">
          <mxGeometry x="550" y="40" width="100" height="440" as="geometry" />
        </mxCell>
        <mxCell id="IGegy7iQX4-WX8THovyX-14" value="" style="html=1;points=[[0,0,0,0,5],[0,1,0,0,-5],[1,0,0,0,5],[1,1,0,0,-5]];perimeter=orthogonalPerimeter;outlineConnect=0;targetShapes=umlLifeline;portConstraint=eastwest;newEdgeStyle={&quot;curved&quot;:0,&quot;rounded&quot;:0};" vertex="1" parent="IGegy7iQX4-WX8THovyX-4">
          <mxGeometry x="45" y="200" width="10" height="160" as="geometry" />
        </mxCell>
        <mxCell id="IGegy7iQX4-WX8THovyX-15" value="" style="html=1;points=[[0,0,0,0,5],[0,1,0,0,-5],[1,0,0,0,5],[1,1,0,0,-5]];perimeter=orthogonalPerimeter;outlineConnect=0;targetShapes=umlLifeline;portConstraint=eastwest;newEdgeStyle={&quot;curved&quot;:0,&quot;rounded&quot;:0};" vertex="1" parent="IGegy7iQX4-WX8THovyX-4">
          <mxGeometry x="50" y="280" width="10" height="40" as="geometry" />
        </mxCell>
        <mxCell id="IGegy7iQX4-WX8THovyX-16" value="Await&amp;nbsp;&lt;div&gt;acknowledgement&lt;/div&gt;" style="html=1;align=left;spacingLeft=2;endArrow=block;rounded=0;edgeStyle=orthogonalEdgeStyle;curved=0;rounded=0;" edge="1" target="IGegy7iQX4-WX8THovyX-15" parent="IGegy7iQX4-WX8THovyX-4">
          <mxGeometry relative="1" as="geometry">
            <mxPoint x="55" y="260" as="sourcePoint" />
            <Array as="points">
              <mxPoint x="85" y="290" />
            </Array>
          </mxGeometry>
        </mxCell>
        <mxCell id="IGegy7iQX4-WX8THovyX-6" value="Send message" style="html=1;verticalAlign=bottom;endArrow=block;curved=0;rounded=0;" edge="1" parent="1">
          <mxGeometry width="80" relative="1" as="geometry">
            <mxPoint x="124.99999999999989" y="143" as="sourcePoint" />
            <mxPoint x="274.9999999999999" y="143" as="targetPoint" />
          </mxGeometry>
        </mxCell>
        <mxCell id="IGegy7iQX4-WX8THovyX-10" value="Encrypt message" style="html=1;verticalAlign=bottom;endArrow=block;curved=0;rounded=0;" edge="1" parent="1">
          <mxGeometry width="80" relative="1" as="geometry">
            <mxPoint x="284.9999999999999" y="180" as="sourcePoint" />
            <mxPoint x="434.9999999999999" y="180" as="targetPoint" />
          </mxGeometry>
        </mxCell>
        <mxCell id="IGegy7iQX4-WX8THovyX-11" value="Message encrypted" style="html=1;verticalAlign=bottom;endArrow=open;dashed=1;endSize=8;curved=0;rounded=0;" edge="1" parent="1">
          <mxGeometry relative="1" as="geometry">
            <mxPoint x="435" y="221" as="sourcePoint" />
            <mxPoint x="285" y="221" as="targetPoint" />
          </mxGeometry>
        </mxCell>
        <mxCell id="IGegy7iQX4-WX8THovyX-13" value="Send encrypted text message" style="html=1;verticalAlign=bottom;endArrow=block;curved=0;rounded=0;" edge="1" parent="1">
          <mxGeometry width="80" relative="1" as="geometry">
            <mxPoint x="285" y="261" as="sourcePoint" />
            <mxPoint x="595" y="261" as="targetPoint" />
          </mxGeometry>
        </mxCell>
        <mxCell id="IGegy7iQX4-WX8THovyX-17" value="Return acknowledgement" style="html=1;verticalAlign=bottom;endArrow=open;dashed=1;endSize=8;curved=0;rounded=0;" edge="1" parent="1">
          <mxGeometry relative="1" as="geometry">
            <mxPoint x="595" y="380" as="sourcePoint" />
            <mxPoint x="285" y="380" as="targetPoint" />
          </mxGeometry>
        </mxCell>
        <mxCell id="IGegy7iQX4-WX8THovyX-18" value="Message sent" style="html=1;verticalAlign=bottom;endArrow=open;dashed=1;endSize=8;curved=0;rounded=0;" edge="1" parent="1">
          <mxGeometry relative="1" as="geometry">
            <mxPoint x="275" y="419" as="sourcePoint" />
            <mxPoint x="125" y="419" as="targetPoint" />
          </mxGeometry>
        </mxCell>
      </root>
    </mxGraphModel>
  </diagram>
</mxfile>
